<svg width="20" height="20" viewBox="0 0 20 20" fill="none" xmlns="http://www.w3.org/2000/svg">
<path d="M9.91992 0.234375C4.52652 0.234375 0.154297 4.6066 0.154297 10C0.154297 15.3934 4.52652 19.7656 9.91992 19.7656C15.3133 19.7656 19.6855 15.3934 19.6855 10C19.6855 4.6066 15.3133 0.234375 9.91992 0.234375ZM10.0384 15.3861C6.9173 15.3861 4.58648 13.0756 4.58648 10.0083C4.58648 6.92406 6.91738 4.61355 10.0384 4.61355C12.7259 4.61355 14.8071 6.38734 15.2239 8.98734H12.3617C12.0097 7.9357 11.1238 7.25297 10.0446 7.25297C8.59262 7.25297 7.52762 8.42047 7.52762 10.0082C7.52762 11.5898 8.59262 12.7405 10.0446 12.7405C11.1823 12.7405 12.0768 11.9991 12.364 10.8596H15.2534C14.8635 13.5559 12.7696 15.3861 10.0384 15.3861Z" fill="white"/>
</svg>
