<svg width="77" height="20" viewBox="0 0 77 20" fill="none" xmlns="http://www.w3.org/2000/svg">
<path d="M2.95565 4.91406H0.279297V19.6536H2.95565V4.91406Z" fill="white"/>
<path d="M15.454 11.761C15.454 10.5308 15.3634 8.59872 13.509 7.58461C13.0119 7.3228 12.4584 7.18599 11.8966 7.18599C11.3348 7.18599 10.7813 7.3228 10.2842 7.58461C8.42897 8.59872 8.33918 10.5331 8.33918 11.761V19.6516H5.66211V11.761C5.66211 9.6728 5.99718 7.09332 8.55129 5.4972C9.5695 4.91415 10.7225 4.60742 11.8958 4.60742C13.0692 4.60742 14.2222 4.91415 15.2404 5.4972C17.7953 7.09332 18.1296 9.6728 18.1296 11.761V19.6516H15.454V11.761Z" fill="white"/>
<path d="M30.3563 11.7608C30.3563 10.5306 30.2662 8.59848 28.4102 7.58438C27.9132 7.3227 27.3602 7.18596 26.7986 7.18596C26.2369 7.18596 25.6835 7.3227 25.1865 7.58438C23.3313 8.59848 23.24 10.5329 23.24 11.7608V19.6514H20.5645V11.7608C20.5645 9.67257 20.8988 7.09309 23.4529 5.49696C24.4711 4.91407 25.6241 4.60742 26.7974 4.60742C27.9707 4.60742 29.1237 4.91407 30.142 5.49696C32.6969 7.09309 33.0304 9.67257 33.0304 11.7608V19.6514H30.3548L30.3563 11.7608Z" fill="white"/>
<path d="M50.2484 12.2836C50.2342 13.7843 49.776 15.2472 48.9319 16.4881C48.0878 17.729 46.8953 18.6924 45.5047 19.2568C44.1142 19.8213 42.5879 19.9617 41.1177 19.6602C39.6475 19.3588 38.2993 18.629 37.243 17.5628C36.1868 16.4967 35.4697 15.1418 35.182 13.6688C34.8943 12.1959 35.049 10.6707 35.6265 9.2855C36.204 7.90026 37.1783 6.71689 38.4271 5.88442C39.6758 5.05196 41.1429 4.60764 42.6437 4.60742C43.6484 4.60738 44.6431 4.80642 45.5704 5.19305C46.4978 5.57969 47.3396 6.14624 48.0467 6.85999C48.7537 7.57374 49.3123 8.42052 49.6902 9.35143C50.0681 10.2823 50.2579 11.2789 50.2484 12.2836ZM37.7784 12.2836C37.7784 15.2928 39.7859 17.381 42.6437 17.381C45.5346 17.381 47.5106 15.2621 47.5106 12.2836C47.5106 9.30506 45.5346 7.18612 42.6437 7.18612C39.7859 7.18612 37.7784 9.27431 37.7784 12.2836Z" fill="white"/>
<path d="M71.2334 4.91211V13.6001C71.2334 15.6883 71.1734 17.7449 68.8307 19.188C67.8886 19.7286 66.8139 19.9949 65.7283 19.9569C65.2418 19.9525 64.7592 19.8697 64.2991 19.7116C64.1212 19.1746 63.7786 18.7074 63.32 18.3762C62.8615 18.045 62.3101 17.8667 61.7444 17.8667C61.1788 17.8667 60.6278 18.045 60.1692 18.3762C59.7106 18.7074 59.368 19.1746 59.1901 19.7116C58.4444 19.9406 57.6592 20.0123 56.8843 19.9224C56.1095 19.8324 55.3619 19.5826 54.6885 19.1888C52.382 17.7764 52.2559 15.7498 52.2559 13.6008V4.91211H54.9329V13.6639C54.9329 14.8302 54.9329 16.1511 56.1177 16.9499C56.5703 17.2257 57.089 17.3741 57.619 17.3793C58.149 17.3846 58.6705 17.2466 59.1285 16.9799C60.3164 16.2111 60.4064 14.8917 60.4064 13.6639V4.91211H63.082V13.6639C63.082 14.894 63.1736 16.2126 64.3599 16.9799C64.7983 17.2509 65.3054 17.3897 65.8207 17.3797C66.3691 17.394 66.9093 17.2444 67.3722 16.9499C68.5586 16.1511 68.5585 14.8302 68.5585 13.6639V4.91211H71.2334Z" fill="white"/>
<path d="M76.6158 4.91406H73.9395V19.6536H76.6158V4.91406Z" fill="white"/>
<path d="M1.61609 0.000978712C1.93858 -0.00161105 2.25444 0.0916614 2.52384 0.268962C2.79323 0.446262 3.0042 0.699596 3.12938 0.996817C3.25455 1.29404 3.28837 1.62175 3.22698 1.93836C3.1656 2.25497 3.01155 2.54621 2.78437 2.77512C2.55719 3.00402 2.26709 3.16028 1.95096 3.22407C1.63482 3.28785 1.30683 3.25628 1.00867 3.13336C0.710507 3.01044 0.455579 2.80172 0.276239 2.53368C0.096899 2.26564 0.00129493 1.95036 0.00143687 1.62785C-0.00781771 1.41279 0.0277238 1.19813 0.105426 0.997383C0.183129 0.796631 0.301422 0.614123 0.453058 0.461332C0.604695 0.30854 0.786364 0.188767 0.98652 0.109543C1.18668 0.0303195 1.40096 -0.00664324 1.61609 0.000978712Z" fill="#44BDC5"/>
<path d="M75.2786 0.000978712C75.6011 -0.00161105 75.9169 0.0916614 76.1863 0.268962C76.4557 0.446262 76.6663 0.699596 76.7915 0.996817C76.9167 1.29404 76.9505 1.62175 76.8891 1.93836C76.8277 2.25497 76.674 2.54621 76.4469 2.77512C76.2197 3.00402 75.9296 3.16028 75.6135 3.22407C75.2973 3.28785 74.9693 3.25628 74.6712 3.13336C74.373 3.01044 74.1177 2.80172 73.9384 2.53368C73.759 2.26564 73.6634 1.95036 73.6636 1.62785C73.6543 1.41279 73.6895 1.19813 73.7672 0.997383C73.8449 0.796631 73.9632 0.614123 74.1148 0.461332C74.2664 0.30854 74.4485 0.188767 74.6486 0.109543C74.8488 0.0303195 75.0635 -0.00664324 75.2786 0.000978712Z" fill="#44BDC5"/>
</svg>
