<svg width="32" height="32" viewBox="0 0 32 32" fill="none" xmlns="http://www.w3.org/2000/svg">
<circle cx="16" cy="16" r="16" fill="#F27712"/>
<path d="M13.2278 10.2395C13.2278 9.56441 13.428 8.90448 13.803 8.34316C14.1781 7.78184 14.7112 7.34435 15.3349 7.086C15.9586 6.82765 16.6449 6.76006 17.307 6.89176C17.9692 7.02346 18.5773 7.34855 19.0547 7.82592C19.5321 8.30328 19.8572 8.91148 19.9889 9.5736C20.1206 10.2357 20.053 10.922 19.7946 11.5457C19.5363 12.1694 19.0988 12.7025 18.5375 13.0776C17.9761 13.4527 17.3162 13.6528 16.6411 13.6528C15.7358 13.6528 14.8677 13.2932 14.2275 12.6531C13.5874 12.013 13.2278 11.1448 13.2278 10.2395V10.2395ZM10.6678 23.8928H22.6145C22.8408 23.8928 23.0578 23.8029 23.2179 23.6429C23.3779 23.4829 23.4678 23.2658 23.4678 23.0395V20.4795C23.4678 19.5742 23.1082 18.706 22.468 18.0659C21.8279 17.4258 20.9597 17.0662 20.0545 17.0662H13.2278C12.3225 17.0662 11.4543 17.4258 10.8142 18.0659C10.1741 18.706 9.81445 19.5742 9.81445 20.4795V23.0395C9.81445 23.2658 9.90436 23.4829 10.0644 23.6429C10.2244 23.8029 10.4415 23.8928 10.6678 23.8928Z" fill="white"/>
</svg>
